<?xml version="1.0" encoding="utf-8"?>
<!-- Generator: Adobe Illustrator 16.0.0, SVG Export Plug-In . SVG Version: 6.00 Build 0)  -->
<!DOCTYPE svg PUBLIC "-//W3C//DTD SVG 1.1//EN" "http://www.w3.org/Graphics/SVG/1.1/DTD/svg11.dtd">
<svg version="1.1"
	 id="svg8" sodipodi:docname="github-org-logo.svg" inkscape:version="0.92.3 (2405546, 2018-03-11)" xmlns:sodipodi="http://sodipodi.sourceforge.net/DTD/sodipodi-0.dtd" xmlns:inkscape="http://www.inkscape.org/namespaces/inkscape" xmlns:svg="http://www.w3.org/2000/svg" xmlns:cc="http://creativecommons.org/ns#" xmlns:rdf="http://www.w3.org/1999/02/22-rdf-syntax-ns#" xmlns:dc="http://purl.org/dc/elements/1.1/"
	 xmlns="http://www.w3.org/2000/svg" xmlns:xlink="http://www.w3.org/1999/xlink" x="0px" y="0px" width="128px" height="128px"
	 viewBox="0 0 128 128" enable-background="new 0 0 128 128" xml:space="preserve">
<sodipodi:namedview  units="px" inkscape:window-maximized="1" inkscape:window-y="40" inkscape:window-x="20" inkscape:current-layer="layer1" inkscape:pageshadow="2" inkscape:document-units="mm" inkscape:pageopacity="0.0" inkscape:window-width="3400" inkscape:window-height="1348" id="base" pagecolor="#ffffff" inkscape:cy="64" inkscape:cx="64" showgrid="false" inkscape:zoom="8.828125" borderopacity="1.0" bordercolor="#666666">
	</sodipodi:namedview>
<g id="layer1" transform="translate(0,-263.13332)" inkscape:groupmode="layer" inkscape:label="Layer 1">
	<path id="rect10" fill="#2A7FFF" d="M24.315,282.402h79.369c2.787,0,5.046,2.26,5.046,5.047v79.369
		c0,2.787-2.259,5.047-5.046,5.047H24.315c-2.787,0-5.046-2.26-5.046-5.047v-79.369C19.269,284.662,21.528,282.402,24.315,282.402z"
		/>
	<g id="text14">
		<path id="path885" fill="#FFFFFF" d="M51.634,333.466c-0.19,3.714-1.238,6.556-3.143,8.523c-1.889,1.968-4.563,2.952-8.023,2.952
			c-3.476,0-6.238-1.317-8.285-3.952c-2.047-2.651-3.071-6.237-3.071-10.762v-6.285c0-4.508,1.048-8.071,3.143-10.69
			c2.111-2.619,4.984-3.928,8.619-3.928c3.349,0,5.936,1.008,7.762,3.024c1.841,2,2.841,4.865,3,8.594H47.23
			c-0.19-2.825-0.786-4.841-1.786-6.047s-2.524-1.81-4.571-1.81c-2.365,0-4.182,0.929-5.452,2.786
			c-1.27,1.841-1.904,4.547-1.904,8.119v6.356c0,3.508,0.587,6.198,1.762,8.071c1.19,1.873,2.92,2.809,5.19,2.809
			c2.27,0,3.905-0.562,4.905-1.689c1-1.127,1.619-3.15,1.857-6.071H51.634z"/>
		<path id="path887" fill="#FFFFFF" d="M72.987,329.157H61.271v15.309h-4.357v-34.665h18.049v3.762H61.271v11.856h11.716V329.157z"
			/>
		<path id="path889" fill="#FFFFFF" d="M96.415,329.157H84.7v15.309h-4.356v-34.665h18.047v3.762H84.7v11.856h11.715V329.157z"/>
	</g>
</g>
</svg>
